<?xml version="1.0" encoding="iso-8859-1"?>
<!-- Generator: Adobe Illustrator 19.0.0, SVG Export Plug-In . SVG Version: 6.00 Build 0)  -->
<svg version="1.1" id="Capa_1" xmlns="http://www.w3.org/2000/svg" xmlns:xlink="http://www.w3.org/1999/xlink" x="0px" y="0px"
	 viewBox="0 0 512 512" style="enable-background:new 0 0 512 512;" fill="#19304D" xml:space="preserve">
<g>
	<g>
		<path d="M496.89,15.011c-20.015-20.015-52.583-20.016-72.598,0L308.353,130.95l72.598,72.598L496.89,87.609
			C516.905,67.594,516.905,35.026,496.89,15.011z"/>
	</g>
</g>
<g>
	<g>
		<path d="M362.499,228.282L283.816,149.6c-25.576-25.576-66.36-28.074-94.866-5.81l-3.621,2.828L365.48,326.769l2.828-3.621
			C390.573,294.643,388.074,253.859,362.499,228.282z"/>
	</g>
</g>
<g>
	<g>
		<path d="M161.08,165.557L5.969,286.702c-3.447,2.692-5.574,6.734-5.842,11.1c-0.267,4.367,1.351,8.637,4.444,11.731l49.873,49.873
			l82.911-75.242c6.246-5.667,15.921-5.174,21.568,1.047c5.667,6.245,5.199,15.901-1.046,21.568l-81.815,74.247l55.012,55.012
			l74.247-81.815c5.667-6.245,15.324-6.713,21.568-1.046c6.247,5.692,6.713,15.324,1.046,21.568l-75.242,82.911l49.873,49.873
			c3.093,3.093,7.364,4.711,11.731,4.444c4.366-0.268,8.407-2.395,11.1-5.842l121.145-155.112L161.08,165.557z"/>
	</g>
</g>
</svg>
